<?xml version="1.0" encoding="utf-8" standalone="no"?>
<!DOCTYPE svg PUBLIC "-//W3C//DTD SVG 1.1//EN"
  "http://www.w3.org/Graphics/SVG/1.1/DTD/svg11.dtd">
<svg xmlns:xlink="http://www.w3.org/1999/xlink" width="466.127313pt" height="210.051484pt" viewBox="0 0 466.127313 210.051484" xmlns="http://www.w3.org/2000/svg" version="1.1">
 <metadata>
  <rdf:RDF xmlns:dc="http://purl.org/dc/elements/1.1/" xmlns:cc="http://creativecommons.org/ns#" xmlns:rdf="http://www.w3.org/1999/02/22-rdf-syntax-ns#">
   <cc:Work>
    <dc:type rdf:resource="http://purl.org/dc/dcmitype/StillImage"/>
    <dc:date>2026-05-28T16:49:59.639258</dc:date>
    <dc:format>image/svg+xml</dc:format>
    <dc:creator>
     <cc:Agent>
      <dc:title>Matplotlib v3.10.8, https://matplotlib.org/</dc:title>
     </cc:Agent>
    </dc:creator>
   </cc:Work>
  </rdf:RDF>
 </metadata>
 <defs>
  <style type="text/css">*{stroke-linejoin: round; stroke-linecap: butt}</style>
 </defs>
 <g id="figure_1">
  <g id="patch_1">
   <path d="M 0 210.051484 
L 466.127313 210.051484 
L 466.127313 0 
L 0 0 
z
" style="fill: #ffffff"/>
  </g>
  <g id="axes_1">
   <g id="patch_2">
    <path d="M 38.832578 172.592187 
L 192.552578 172.592187 
L 192.552578 18.872187 
L 38.832578 18.872187 
z
" style="fill: #ffffff"/>
   </g>
   <g id="matplotlib.axis_1">
    <g id="xtick_1">
     <g id="line2d_1">
      <path d="M 51.052865 172.592187 
L 51.052865 18.872187 
" clip-path="url(#pf8677cbd63)" style="fill: none; stroke: #cccccc; stroke-opacity: 0.2; stroke-width: 0.6; stroke-linecap: square"/>
     </g>
     <g id="line2d_2">
      <defs>
       <path id="m88b329b6ff" d="M 0 0 
L 0 3.5 
" style="stroke: #222222; stroke-width: 0.8"/>
      </defs>
      <g>
       <use xlink:href="#m88b329b6ff" x="51.052865" y="172.592187" style="fill: #222222; stroke: #222222; stroke-width: 0.8"/>
      </g>
     </g>
     <g id="text_1">
      <!-- 20 -->
      <g style="fill: #222222" transform="translate(44.602396 188.385312) scale(0.11 -0.11)">
       <defs>
        <path id="MicrosoftYaHei-32" d="M 2666 3572 
Q 2666 3963 2419 4186 
Q 2172 4409 1747 4409 
Q 1447 4409 1140 4256 
Q 834 4103 569 3819 
L 569 4413 
Q 806 4659 1107 4790 
Q 1409 4922 1816 4922 
Q 2472 4922 2872 4570 
Q 3272 4219 3272 3619 
Q 3272 3084 3026 2693 
Q 2781 2303 2188 1894 
Q 1581 1475 1376 1294 
Q 1172 1113 1090 947 
Q 1009 781 1009 544 
L 3416 544 
L 3416 0 
L 372 0 
L 372 241 
Q 372 659 486 951 
Q 600 1244 862 1520 
Q 1125 1797 1681 2184 
Q 2250 2584 2458 2886 
Q 2666 3188 2666 3572 
z
" transform="scale(0.015625)"/>
        <path id="MicrosoftYaHei-30" d="M 284 2325 
Q 284 3606 709 4264 
Q 1134 4922 1941 4922 
Q 3478 4922 3478 2441 
Q 3478 1216 3045 567 
Q 2613 -81 1831 -81 
Q 1094 -81 689 534 
Q 284 1150 284 2325 
z
M 909 2353 
Q 909 425 1888 425 
Q 2850 425 2850 2384 
Q 2850 4413 1906 4413 
Q 909 4413 909 2353 
z
" transform="scale(0.015625)"/>
       </defs>
       <use xlink:href="#MicrosoftYaHei-32"/>
       <use xlink:href="#MicrosoftYaHei-30" transform="translate(58.642578 0)"/>
      </g>
     </g>
    </g>
    <g id="xtick_2">
     <g id="line2d_3">
      <path d="M 92.219722 172.592187 
L 92.219722 18.872187 
" clip-path="url(#pf8677cbd63)" style="fill: none; stroke: #cccccc; stroke-opacity: 0.2; stroke-width: 0.6; stroke-linecap: square"/>
     </g>
     <g id="line2d_4">
      <g>
       <use xlink:href="#m88b329b6ff" x="92.219722" y="172.592187" style="fill: #222222; stroke: #222222; stroke-width: 0.8"/>
      </g>
     </g>
     <g id="text_2">
      <!-- 40 -->
      <g style="fill: #222222" transform="translate(85.769253 188.385312) scale(0.11 -0.11)">
       <defs>
        <path id="MicrosoftYaHei-34" d="M 2906 4841 
L 2906 1644 
L 3631 1644 
L 3631 1138 
L 2906 1138 
L 2906 0 
L 2313 0 
L 2313 1138 
L 53 1138 
L 53 1616 
Q 656 2294 1265 3178 
Q 1875 4063 2272 4841 
L 2906 4841 
z
M 741 1644 
L 2313 1644 
L 2313 3950 
Q 1988 3366 1616 2817 
Q 1244 2269 741 1644 
z
" transform="scale(0.015625)"/>
       </defs>
       <use xlink:href="#MicrosoftYaHei-34"/>
       <use xlink:href="#MicrosoftYaHei-30" transform="translate(58.642578 0)"/>
      </g>
     </g>
    </g>
    <g id="xtick_3">
     <g id="line2d_5">
      <path d="M 133.386578 172.592187 
L 133.386578 18.872187 
" clip-path="url(#pf8677cbd63)" style="fill: none; stroke: #cccccc; stroke-opacity: 0.2; stroke-width: 0.6; stroke-linecap: square"/>
     </g>
     <g id="line2d_6">
      <g>
       <use xlink:href="#m88b329b6ff" x="133.386578" y="172.592187" style="fill: #222222; stroke: #222222; stroke-width: 0.8"/>
      </g>
     </g>
     <g id="text_3">
      <!-- 60 -->
      <g style="fill: #222222" transform="translate(126.936109 188.385312) scale(0.11 -0.11)">
       <defs>
        <path id="MicrosoftYaHei-36" d="M 3181 4219 
Q 2803 4413 2391 4413 
Q 1763 4413 1381 3866 
Q 1000 3319 994 2372 
L 1009 2372 
Q 1353 3038 2106 3038 
Q 2734 3038 3109 2628 
Q 3484 2219 3484 1541 
Q 3484 831 3051 375 
Q 2619 -81 1947 -81 
Q 1209 -81 789 495 
Q 369 1072 369 2131 
Q 369 3413 920 4167 
Q 1472 4922 2372 4922 
Q 2888 4922 3181 4781 
L 3181 4219 
z
M 1031 1584 
Q 1031 1106 1286 765 
Q 1541 425 1963 425 
Q 2363 425 2613 719 
Q 2863 1013 2863 1475 
Q 2863 1975 2627 2253 
Q 2391 2531 1956 2531 
Q 1544 2531 1287 2250 
Q 1031 1969 1031 1584 
z
" transform="scale(0.015625)"/>
       </defs>
       <use xlink:href="#MicrosoftYaHei-36"/>
       <use xlink:href="#MicrosoftYaHei-30" transform="translate(58.642578 0)"/>
      </g>
     </g>
    </g>
    <g id="xtick_4">
     <g id="line2d_7">
      <path d="M 174.553434 172.592187 
L 174.553434 18.872187 
" clip-path="url(#pf8677cbd63)" style="fill: none; stroke: #cccccc; stroke-opacity: 0.2; stroke-width: 0.6; stroke-linecap: square"/>
     </g>
     <g id="line2d_8">
      <g>
       <use xlink:href="#m88b329b6ff" x="174.553434" y="172.592187" style="fill: #222222; stroke: #222222; stroke-width: 0.8"/>
      </g>
     </g>
     <g id="text_4">
      <!-- 80 -->
      <g style="fill: #222222" transform="translate(168.102966 188.385312) scale(0.11 -0.11)">
       <defs>
        <path id="MicrosoftYaHei-38" d="M 306 1350 
Q 306 1769 556 2122 
Q 806 2475 1200 2625 
Q 884 2803 700 3081 
Q 516 3359 516 3684 
Q 516 4028 692 4312 
Q 869 4597 1183 4759 
Q 1497 4922 1875 4922 
Q 2256 4922 2572 4761 
Q 2888 4600 3063 4315 
Q 3238 4031 3238 3684 
Q 3238 3366 3058 3086 
Q 2878 2806 2559 2625 
Q 2953 2472 3200 2119 
Q 3447 1766 3447 1350 
Q 3447 938 3250 611 
Q 3053 284 2690 103 
Q 2328 -78 1875 -78 
Q 1425 -78 1065 103 
Q 706 284 506 612 
Q 306 941 306 1350 
z
M 906 1378 
Q 906 947 1172 687 
Q 1438 428 1878 428 
Q 2309 428 2582 692 
Q 2856 956 2856 1378 
Q 2856 1778 2579 2051 
Q 2303 2325 1878 2325 
Q 1456 2325 1181 2058 
Q 906 1791 906 1378 
z
M 1081 3634 
Q 1081 3309 1312 3076 
Q 1544 2844 1878 2844 
Q 2206 2844 2445 3078 
Q 2684 3313 2684 3634 
Q 2684 3963 2454 4191 
Q 2225 4419 1878 4419 
Q 1534 4419 1307 4195 
Q 1081 3972 1081 3634 
z
" transform="scale(0.015625)"/>
       </defs>
       <use xlink:href="#MicrosoftYaHei-38"/>
       <use xlink:href="#MicrosoftYaHei-30" transform="translate(58.642578 0)"/>
      </g>
     </g>
    </g>
    <g id="text_5">
     <!-- 实测值 / MPa -->
     <g style="fill: #222222" transform="translate(80.469336 204.312656) scale(0.115 -0.115)">
      <defs>
       <path id="MicrosoftYaHei-5b9e" d="M 113 -397 
Q 2419 34 3081 972 
L 213 972 
L 213 1434 
L 3313 1434 
Q 3525 2084 3506 3703 
L 4031 3703 
Q 4031 2097 3856 1434 
L 6225 1434 
L 6225 972 
L 3681 972 
Q 3631 872 3563 759 
Q 4900 197 6181 -403 
L 5906 -878 
Q 4569 -197 3263 391 
Q 2413 -441 413 -891 
Q 269 -616 113 -397 
z
M 331 4422 
L 3194 4422 
Q 3038 4703 2775 5078 
L 3231 5334 
Q 3438 5059 3731 4609 
L 3388 4422 
L 6063 4422 
L 6063 3303 
L 5563 3303 
L 5563 3959 
L 831 3959 
L 831 3303 
L 331 3303 
L 331 4422 
z
M 1100 2734 
Q 1819 2409 2450 2053 
L 2181 1622 
Q 1556 2003 863 2334 
L 1100 2734 
z
M 1663 3691 
Q 2388 3341 2981 2984 
L 2700 2559 
Q 2119 2934 1419 3322 
L 1663 3691 
z
" transform="scale(0.015625)"/>
       <path id="MicrosoftYaHei-6d4b" d="M 875 1753 
Q 1175 1597 1369 1522 
Q 950 -41 763 -784 
L 250 -547 
Q 619 497 875 1753 
z
M 638 5166 
Q 1019 4847 1588 4303 
Q 1381 4103 1213 3928 
Q 756 4434 313 4853 
L 638 5166 
z
M 356 3559 
Q 881 3134 1350 2716 
Q 1188 2547 988 2322 
Q 425 2878 50 3216 
L 356 3559 
z
M 5575 5284 
L 6031 5284 
L 6031 -34 
Q 6031 -753 5338 -753 
Q 5038 -753 4625 -741 
Q 4600 -509 4538 -228 
Q 4938 -272 5219 -272 
Q 5575 -272 5575 84 
L 5575 5284 
z
M 5038 634 
L 4600 634 
L 4600 4778 
L 5038 4778 
L 5038 634 
z
M 1706 4941 
L 4063 4941 
L 4063 991 
L 3613 991 
L 3613 4503 
L 2156 4503 
L 2156 991 
L 1706 991 
L 1706 4941 
z
M 2681 3966 
L 3138 3966 
L 3138 2416 
Q 3138 1466 2963 891 
Q 3775 266 4375 -234 
L 4038 -616 
Q 3538 -141 2800 472 
Q 2413 -297 1406 -884 
Q 1269 -684 1100 -484 
Q 2031 53 2375 709 
Q 2681 1278 2681 2403 
L 2681 3966 
z
" transform="scale(0.015625)"/>
       <path id="MicrosoftYaHei-503c" d="M 1619 -216 
L 2250 -216 
L 2250 3653 
L 3725 3653 
L 3725 4222 
L 1913 4222 
L 1913 4647 
L 3725 4647 
L 3725 5309 
L 4200 5309 
L 4200 4647 
L 6169 4647 
L 6169 4222 
L 4200 4222 
L 4200 3653 
L 5713 3653 
L 5713 -216 
L 6306 -216 
L 6306 -641 
L 1619 -641 
L 1619 -216 
z
M 69 2247 
Q 906 3497 1369 5278 
L 1831 5141 
Q 1581 4334 1288 3628 
L 1288 -816 
L 831 -816 
L 831 2666 
Q 563 2166 263 1734 
Q 175 1997 69 2247 
z
M 2713 -216 
L 5250 -216 
L 5250 353 
L 2713 353 
L 2713 -216 
z
M 5250 3241 
L 2713 3241 
L 2713 2678 
L 5250 2678 
L 5250 3241 
z
M 2713 1716 
L 5250 1716 
L 5250 2278 
L 2713 2278 
L 2713 1716 
z
M 2713 753 
L 5250 753 
L 5250 1316 
L 2713 1316 
L 2713 753 
z
" transform="scale(0.015625)"/>
       <path id="MicrosoftYaHei-20" transform="scale(0.015625)"/>
       <path id="MicrosoftYaHei-2f" d="M 2791 4841 
L 469 -803 
L -103 -803 
L 2219 4841 
L 2791 4841 
z
" transform="scale(0.015625)"/>
       <path id="MicrosoftYaHei-4d" d="M 5003 0 
L 5003 3206 
Q 5003 3603 5050 4159 
L 5034 4159 
Q 4953 3809 4891 3672 
L 3294 0 
L 2947 0 
L 1353 3644 
Q 1297 3769 1209 4159 
L 1191 4159 
Q 1222 3822 1222 3178 
L 1222 0 
L 625 0 
L 625 4841 
L 1472 4841 
L 2900 1522 
Q 3063 1141 3116 928 
L 3138 928 
Q 3300 1375 3366 1534 
L 4819 4841 
L 5625 4841 
L 5625 0 
L 5003 0 
z
" transform="scale(0.015625)"/>
       <path id="MicrosoftYaHei-50" d="M 1250 1809 
L 1250 0 
L 625 0 
L 625 4841 
L 2000 4841 
Q 2784 4841 3217 4462 
Q 3650 4084 3650 3381 
Q 3650 2669 3144 2226 
Q 2638 1784 1878 1809 
L 1250 1809 
z
M 1250 4291 
L 1250 2359 
L 1828 2359 
Q 2400 2359 2697 2617 
Q 2994 2875 2994 3356 
Q 2994 4291 1888 4291 
L 1250 4291 
z
" transform="scale(0.015625)"/>
       <path id="MicrosoftYaHei-61" d="M 628 3216 
Q 1144 3538 1819 3538 
Q 3069 3538 3069 2225 
L 3069 0 
L 2463 0 
L 2463 534 
L 2447 534 
Q 2088 -81 1388 -81 
Q 884 -81 587 191 
Q 291 463 291 925 
Q 291 1894 1438 2053 
L 2463 2197 
Q 2463 3044 1763 3044 
Q 1141 3044 628 2625 
L 628 3216 
z
M 1653 1625 
Q 1228 1569 1067 1412 
Q 906 1256 906 975 
Q 906 728 1081 572 
Q 1256 416 1544 416 
Q 1944 416 2203 697 
Q 2463 978 2463 1403 
L 2463 1734 
L 1653 1625 
z
" transform="scale(0.015625)"/>
      </defs>
      <use xlink:href="#MicrosoftYaHei-5b9e"/>
      <use xlink:href="#MicrosoftYaHei-6d4b" transform="translate(100 0)"/>
      <use xlink:href="#MicrosoftYaHei-503c" transform="translate(200 0)"/>
      <use xlink:href="#MicrosoftYaHei-20" transform="translate(300 0)"/>
      <use xlink:href="#MicrosoftYaHei-2f" transform="translate(329.589844 0)"/>
      <use xlink:href="#MicrosoftYaHei-20" transform="translate(372.314453 0)"/>
      <use xlink:href="#MicrosoftYaHei-4d" transform="translate(401.904297 0)"/>
      <use xlink:href="#MicrosoftYaHei-50" transform="translate(499.609375 0)"/>
      <use xlink:href="#MicrosoftYaHei-61" transform="translate(557.291016 0)"/>
     </g>
    </g>
   </g>
   <g id="matplotlib.axis_2">
    <g id="ytick_1">
     <g id="line2d_9">
      <path d="M 38.832578 160.3719 
L 192.552578 160.3719 
" clip-path="url(#pf8677cbd63)" style="fill: none; stroke: #cccccc; stroke-opacity: 0.2; stroke-width: 0.6; stroke-linecap: square"/>
     </g>
     <g id="line2d_10">
      <defs>
       <path id="m75f6db8dde" d="M 0 0 
L -3.5 0 
" style="stroke: #222222; stroke-width: 0.8"/>
      </defs>
      <g>
       <use xlink:href="#m75f6db8dde" x="38.832578" y="160.3719" style="fill: #222222; stroke: #222222; stroke-width: 0.8"/>
      </g>
     </g>
     <g id="text_6">
      <!-- 20 -->
      <g style="fill: #222222" transform="translate(18.931641 164.768463) scale(0.11 -0.11)">
       <use xlink:href="#MicrosoftYaHei-32"/>
       <use xlink:href="#MicrosoftYaHei-30" transform="translate(58.642578 0)"/>
      </g>
     </g>
    </g>
    <g id="ytick_2">
     <g id="line2d_11">
      <path d="M 38.832578 119.205044 
L 192.552578 119.205044 
" clip-path="url(#pf8677cbd63)" style="fill: none; stroke: #cccccc; stroke-opacity: 0.2; stroke-width: 0.6; stroke-linecap: square"/>
     </g>
     <g id="line2d_12">
      <g>
       <use xlink:href="#m75f6db8dde" x="38.832578" y="119.205044" style="fill: #222222; stroke: #222222; stroke-width: 0.8"/>
      </g>
     </g>
     <g id="text_7">
      <!-- 40 -->
      <g style="fill: #222222" transform="translate(18.931641 123.601607) scale(0.11 -0.11)">
       <use xlink:href="#MicrosoftYaHei-34"/>
       <use xlink:href="#MicrosoftYaHei-30" transform="translate(58.642578 0)"/>
      </g>
     </g>
    </g>
    <g id="ytick_3">
     <g id="line2d_13">
      <path d="M 38.832578 78.038188 
L 192.552578 78.038188 
" clip-path="url(#pf8677cbd63)" style="fill: none; stroke: #cccccc; stroke-opacity: 0.2; stroke-width: 0.6; stroke-linecap: square"/>
     </g>
     <g id="line2d_14">
      <g>
       <use xlink:href="#m75f6db8dde" x="38.832578" y="78.038188" style="fill: #222222; stroke: #222222; stroke-width: 0.8"/>
      </g>
     </g>
     <g id="text_8">
      <!-- 60 -->
      <g style="fill: #222222" transform="translate(18.931641 82.43475) scale(0.11 -0.11)">
       <use xlink:href="#MicrosoftYaHei-36"/>
       <use xlink:href="#MicrosoftYaHei-30" transform="translate(58.642578 0)"/>
      </g>
     </g>
    </g>
    <g id="ytick_4">
     <g id="line2d_15">
      <path d="M 38.832578 36.871331 
L 192.552578 36.871331 
" clip-path="url(#pf8677cbd63)" style="fill: none; stroke: #cccccc; stroke-opacity: 0.2; stroke-width: 0.6; stroke-linecap: square"/>
     </g>
     <g id="line2d_16">
      <g>
       <use xlink:href="#m75f6db8dde" x="38.832578" y="36.871331" style="fill: #222222; stroke: #222222; stroke-width: 0.8"/>
      </g>
     </g>
     <g id="text_9">
      <!-- 80 -->
      <g style="fill: #222222" transform="translate(18.931641 41.267894) scale(0.11 -0.11)">
       <use xlink:href="#MicrosoftYaHei-38"/>
       <use xlink:href="#MicrosoftYaHei-30" transform="translate(58.642578 0)"/>
      </g>
     </g>
    </g>
    <g id="text_10">
     <!-- 预测值 / MPa -->
     <g style="fill: #222222" transform="translate(12.072813 130.95543) rotate(-90) scale(0.115 -0.115)">
      <defs>
       <path id="MicrosoftYaHei-9884" d="M 531 3872 
L 844 4147 
Q 1069 3947 1275 3747 
L 1938 4553 
L 175 4553 
L 175 4991 
L 2513 4991 
L 2513 4553 
L 1588 3434 
Q 1694 3322 1794 3216 
L 1544 2997 
L 2681 2997 
L 2681 2578 
Q 2581 2097 2369 1466 
Q 2175 1534 1938 1609 
Q 2094 2003 2213 2559 
L 1588 2559 
L 1588 -72 
Q 1588 -784 888 -784 
L 225 -784 
Q 194 -559 138 -278 
Q 450 -316 769 -316 
Q 1119 -316 1119 84 
L 1119 2559 
L 113 2559 
L 113 2997 
L 1344 2997 
Q 938 3484 531 3872 
z
M 2969 3716 
L 4025 3716 
L 4181 4572 
L 2744 4572 
L 2744 5009 
L 6294 5009 
L 6294 4572 
L 4688 4572 
L 4506 3716 
L 6006 3716 
L 6006 641 
L 5550 641 
L 5550 3284 
L 3425 3284 
L 3425 641 
L 2969 641 
L 2969 3716 
z
M 4244 3028 
L 4706 3028 
L 4706 2097 
Q 4706 1366 4519 841 
Q 5500 184 6306 -441 
L 5963 -847 
Q 5200 -197 4325 428 
Q 4263 334 4200 247 
Q 3694 -397 2613 -897 
Q 2413 -641 2263 -484 
Q 3381 -22 3831 572 
Q 4244 1109 4244 2128 
L 4244 3028 
z
" transform="scale(0.015625)"/>
      </defs>
      <use xlink:href="#MicrosoftYaHei-9884"/>
      <use xlink:href="#MicrosoftYaHei-6d4b" transform="translate(100 0)"/>
      <use xlink:href="#MicrosoftYaHei-503c" transform="translate(200 0)"/>
      <use xlink:href="#MicrosoftYaHei-20" transform="translate(300 0)"/>
      <use xlink:href="#MicrosoftYaHei-2f" transform="translate(329.589844 0)"/>
      <use xlink:href="#MicrosoftYaHei-20" transform="translate(372.314453 0)"/>
      <use xlink:href="#MicrosoftYaHei-4d" transform="translate(401.904297 0)"/>
      <use xlink:href="#MicrosoftYaHei-50" transform="translate(499.609375 0)"/>
      <use xlink:href="#MicrosoftYaHei-61" transform="translate(557.291016 0)"/>
     </g>
    </g>
   </g>
   <g id="line2d_17">
    <path d="M 38.832578 172.592187 
L 192.552578 18.872188 
" clip-path="url(#pf8677cbd63)" style="fill: none; stroke-dasharray: 3.7,1.6; stroke-dashoffset: 0; stroke: #555555"/>
   </g>
   <g id="patch_3">
    <path d="M 38.832578 172.592187 
L 38.832578 18.872188 
" style="fill: none; stroke: #333333; stroke-width: 0.8; stroke-linejoin: miter; stroke-linecap: square"/>
   </g>
   <g id="patch_4">
    <path d="M 192.552578 172.592187 
L 192.552578 18.872188 
" style="fill: none; stroke: #333333; stroke-width: 0.8; stroke-linejoin: miter; stroke-linecap: square"/>
   </g>
   <g id="patch_5">
    <path d="M 38.832578 172.592187 
L 192.552578 172.592187 
" style="fill: none; stroke: #333333; stroke-width: 0.8; stroke-linejoin: miter; stroke-linecap: square"/>
   </g>
   <g id="patch_6">
    <path d="M 38.832578 18.872187 
L 192.552578 18.872187 
" style="fill: none; stroke: #333333; stroke-width: 0.8; stroke-linejoin: miter; stroke-linecap: square"/>
   </g>
   <g id="PathCollection_1">
    <defs>
     <path id="m414c88a566" d="M 0 2.54951 
C 0.676138 2.54951 1.324674 2.280877 1.802776 1.802776 
C 2.280877 1.324674 2.54951 0.676138 2.54951 0 
C 2.54951 -0.676138 2.280877 -1.324674 1.802776 -1.802776 
C 1.324674 -2.280877 0.676138 -2.54951 0 -2.54951 
C -0.676138 -2.54951 -1.324674 -2.280877 -1.802776 -1.802776 
C -2.280877 -1.324674 -2.54951 -0.676138 -2.54951 0 
C -2.54951 0.676138 -2.280877 1.324674 -1.802776 1.802776 
C -1.324674 2.280877 -0.676138 2.54951 0 2.54951 
z
" style="stroke: #3a5a8c; stroke-opacity: 0.75; stroke-width: 0.4"/>
    </defs>
    <g clip-path="url(#pf8677cbd63)">
     <use xlink:href="#m414c88a566" x="163.49288" y="85.021846" style="fill: #4c72b0; fill-opacity: 0.75; stroke: #3a5a8c; stroke-opacity: 0.75; stroke-width: 0.4"/>
     <use xlink:href="#m414c88a566" x="101.371185" y="120.559468" style="fill: #4c72b0; fill-opacity: 0.75; stroke: #3a5a8c; stroke-opacity: 0.75; stroke-width: 0.4"/>
     <use xlink:href="#m414c88a566" x="172.607055" y="35.305236" style="fill: #4c72b0; fill-opacity: 0.75; stroke: #3a5a8c; stroke-opacity: 0.75; stroke-width: 0.4"/>
     <use xlink:href="#m414c88a566" x="143.157886" y="76.096533" style="fill: #4c72b0; fill-opacity: 0.75; stroke: #3a5a8c; stroke-opacity: 0.75; stroke-width: 0.4"/>
     <use xlink:href="#m414c88a566" x="131.553319" y="60.115636" style="fill: #4c72b0; fill-opacity: 0.75; stroke: #3a5a8c; stroke-opacity: 0.75; stroke-width: 0.4"/>
     <use xlink:href="#m414c88a566" x="164.699757" y="52.492775" style="fill: #4c72b0; fill-opacity: 0.75; stroke: #3a5a8c; stroke-opacity: 0.75; stroke-width: 0.4"/>
     <use xlink:href="#m414c88a566" x="112.548938" y="103.810423" style="fill: #4c72b0; fill-opacity: 0.75; stroke: #3a5a8c; stroke-opacity: 0.75; stroke-width: 0.4"/>
     <use xlink:href="#m414c88a566" x="142.937078" y="68.337234" style="fill: #4c72b0; fill-opacity: 0.75; stroke: #3a5a8c; stroke-opacity: 0.75; stroke-width: 0.4"/>
     <use xlink:href="#m414c88a566" x="68.007317" y="137.41084" style="fill: #4c72b0; fill-opacity: 0.75; stroke: #3a5a8c; stroke-opacity: 0.75; stroke-width: 0.4"/>
     <use xlink:href="#m414c88a566" x="169.034055" y="60.053254" style="fill: #4c72b0; fill-opacity: 0.75; stroke: #3a5a8c; stroke-opacity: 0.75; stroke-width: 0.4"/>
     <use xlink:href="#m414c88a566" x="117.979713" y="95.06107" style="fill: #4c72b0; fill-opacity: 0.75; stroke: #3a5a8c; stroke-opacity: 0.75; stroke-width: 0.4"/>
     <use xlink:href="#m414c88a566" x="139.878723" y="66.460042" style="fill: #4c72b0; fill-opacity: 0.75; stroke: #3a5a8c; stroke-opacity: 0.75; stroke-width: 0.4"/>
     <use xlink:href="#m414c88a566" x="102.435485" y="112.441775" style="fill: #4c72b0; fill-opacity: 0.75; stroke: #3a5a8c; stroke-opacity: 0.75; stroke-width: 0.4"/>
     <use xlink:href="#m414c88a566" x="157.273416" y="57.959283" style="fill: #4c72b0; fill-opacity: 0.75; stroke: #3a5a8c; stroke-opacity: 0.75; stroke-width: 0.4"/>
     <use xlink:href="#m414c88a566" x="50.727233" y="163.800118" style="fill: #4c72b0; fill-opacity: 0.75; stroke: #3a5a8c; stroke-opacity: 0.75; stroke-width: 0.4"/>
     <use xlink:href="#m414c88a566" x="47.067578" y="158.568461" style="fill: #4c72b0; fill-opacity: 0.75; stroke: #3a5a8c; stroke-opacity: 0.75; stroke-width: 0.4"/>
     <use xlink:href="#m414c88a566" x="109.871611" y="96.239295" style="fill: #4c72b0; fill-opacity: 0.75; stroke: #3a5a8c; stroke-opacity: 0.75; stroke-width: 0.4"/>
     <use xlink:href="#m414c88a566" x="145.629762" y="74.819545" style="fill: #4c72b0; fill-opacity: 0.75; stroke: #3a5a8c; stroke-opacity: 0.75; stroke-width: 0.4"/>
     <use xlink:href="#m414c88a566" x="153.169257" y="65.319252" style="fill: #4c72b0; fill-opacity: 0.75; stroke: #3a5a8c; stroke-opacity: 0.75; stroke-width: 0.4"/>
     <use xlink:href="#m414c88a566" x="100.606809" y="115.056559" style="fill: #4c72b0; fill-opacity: 0.75; stroke: #3a5a8c; stroke-opacity: 0.75; stroke-width: 0.4"/>
     <use xlink:href="#m414c88a566" x="133.041923" y="78.95621" style="fill: #4c72b0; fill-opacity: 0.75; stroke: #3a5a8c; stroke-opacity: 0.75; stroke-width: 0.4"/>
     <use xlink:href="#m414c88a566" x="109.262662" y="104.09631" style="fill: #4c72b0; fill-opacity: 0.75; stroke: #3a5a8c; stroke-opacity: 0.75; stroke-width: 0.4"/>
     <use xlink:href="#m414c88a566" x="177.086406" y="27.107188" style="fill: #4c72b0; fill-opacity: 0.75; stroke: #3a5a8c; stroke-opacity: 0.75; stroke-width: 0.4"/>
     <use xlink:href="#m414c88a566" x="134.89176" y="84.738622" style="fill: #4c72b0; fill-opacity: 0.75; stroke: #3a5a8c; stroke-opacity: 0.75; stroke-width: 0.4"/>
     <use xlink:href="#m414c88a566" x="93.001892" y="123.63197" style="fill: #4c72b0; fill-opacity: 0.75; stroke: #3a5a8c; stroke-opacity: 0.75; stroke-width: 0.4"/>
     <use xlink:href="#m414c88a566" x="105.310782" y="98.929868" style="fill: #4c72b0; fill-opacity: 0.75; stroke: #3a5a8c; stroke-opacity: 0.75; stroke-width: 0.4"/>
     <use xlink:href="#m414c88a566" x="112.432648" y="108.531917" style="fill: #4c72b0; fill-opacity: 0.75; stroke: #3a5a8c; stroke-opacity: 0.75; stroke-width: 0.4"/>
     <use xlink:href="#m414c88a566" x="100.885345" y="106.377386" style="fill: #4c72b0; fill-opacity: 0.75; stroke: #3a5a8c; stroke-opacity: 0.75; stroke-width: 0.4"/>
     <use xlink:href="#m414c88a566" x="112.020979" y="99.727351" style="fill: #4c72b0; fill-opacity: 0.75; stroke: #3a5a8c; stroke-opacity: 0.75; stroke-width: 0.4"/>
     <use xlink:href="#m414c88a566" x="124.865039" y="77.793168" style="fill: #4c72b0; fill-opacity: 0.75; stroke: #3a5a8c; stroke-opacity: 0.75; stroke-width: 0.4"/>
     <use xlink:href="#m414c88a566" x="125.853043" y="81.999578" style="fill: #4c72b0; fill-opacity: 0.75; stroke: #3a5a8c; stroke-opacity: 0.75; stroke-width: 0.4"/>
     <use xlink:href="#m414c88a566" x="124.803288" y="89.230462" style="fill: #4c72b0; fill-opacity: 0.75; stroke: #3a5a8c; stroke-opacity: 0.75; stroke-width: 0.4"/>
     <use xlink:href="#m414c88a566" x="139.993858" y="83.33952" style="fill: #4c72b0; fill-opacity: 0.75; stroke: #3a5a8c; stroke-opacity: 0.75; stroke-width: 0.4"/>
    </g>
   </g>
   <g id="text_11">
    <g id="patch_7">
     <path d="M 92.6059 167.846187 
L 187.940978 167.846187 
Q 190.880978 167.846187 190.880978 164.906187 
L 190.880978 127.194847 
Q 190.880978 124.254847 187.940978 124.254847 
L 92.6059 124.254847 
Q 89.6659 124.254847 89.6659 127.194847 
L 89.6659 164.906187 
Q 89.6659 167.846187 92.6059 167.846187 
z
" style="fill: #ffffff; opacity: 0.72; stroke: #cccccc; stroke-width: 0.5; stroke-linejoin: miter"/>
    </g>
    <!-- $R^2$ = 0.904 -->
    <g style="fill: #222222" transform="translate(135.020978 135.588284) scale(0.105 -0.105)">
     <defs>
      <path id="STIXGeneral-Italic-52" d="M 845 4179 
L 2458 4179 
Q 3078 4179 3420 3936 
Q 3763 3693 3763 3277 
Q 3763 2778 3341 2458 
Q 3091 2266 2502 2131 
L 3072 627 
Q 3181 333 3299 217 
Q 3418 102 3629 102 
L 3629 0 
L 2688 0 
L 1901 2074 
L 1478 2106 
L 1126 806 
Q 1043 512 1043 403 
Q 1043 256 1126 192 
Q 1210 128 1472 102 
L 1472 0 
L -83 0 
L -83 102 
Q 173 134 278 243 
Q 384 352 461 646 
L 1222 3405 
Q 1299 3699 1299 3808 
Q 1299 3923 1210 3987 
Q 1133 4038 845 4077 
L 845 4179 
z
M 1958 3795 
L 1555 2342 
Q 1754 2310 1882 2310 
Q 2451 2310 2771 2566 
Q 3091 2822 3091 3270 
Q 3091 3603 2892 3795 
Q 2694 3987 2323 3987 
Q 2010 3987 1958 3795 
z
" transform="scale(0.015625)"/>
      <path id="STIXGeneral-Regular-32" d="M 3034 877 
L 2688 0 
L 186 0 
L 186 77 
L 1325 1286 
Q 1773 1754 1965 2144 
Q 2157 2534 2157 2950 
Q 2157 3379 1920 3616 
Q 1683 3853 1267 3853 
Q 922 3853 720 3673 
Q 518 3494 326 3021 
L 192 3053 
Q 301 3648 630 3987 
Q 960 4326 1523 4326 
Q 2054 4326 2380 4006 
Q 2707 3686 2707 3200 
Q 2707 2477 1888 1613 
L 832 486 
L 2330 486 
Q 2541 486 2665 569 
Q 2790 653 2944 915 
L 3034 877 
z
" transform="scale(0.015625)"/>
      <path id="MicrosoftYaHei-3d" d="M 3972 2497 
L 788 2497 
L 788 2969 
L 3972 2969 
L 3972 2497 
z
M 3972 1053 
L 788 1053 
L 788 1525 
L 3972 1525 
L 3972 1053 
z
" transform="scale(0.015625)"/>
      <path id="MicrosoftYaHei-2e" d="M 372 322 
Q 372 491 487 606 
Q 603 722 775 722 
Q 950 722 1065 605 
Q 1181 488 1181 322 
Q 1181 159 1065 42 
Q 950 -75 772 -75 
Q 600 -75 486 42 
Q 372 159 372 322 
z
" transform="scale(0.015625)"/>
      <path id="MicrosoftYaHei-39" d="M 578 656 
Q 978 425 1441 425 
Q 2091 425 2448 937 
Q 2806 1450 2806 2394 
Q 2800 2388 2794 2394 
Q 2475 1788 1722 1788 
Q 1113 1788 713 2206 
Q 313 2625 313 3294 
Q 313 4006 750 4464 
Q 1188 4922 1884 4922 
Q 2606 4922 3012 4355 
Q 3419 3788 3419 2703 
Q 3419 1363 2894 641 
Q 2369 -81 1441 -81 
Q 931 -81 578 84 
L 578 656 
z
M 931 3372 
Q 931 2884 1181 2598 
Q 1431 2313 1872 2313 
Q 2253 2313 2512 2573 
Q 2772 2834 2772 3206 
Q 2772 3728 2514 4070 
Q 2256 4413 1834 4413 
Q 1444 4413 1187 4116 
Q 931 3819 931 3372 
z
" transform="scale(0.015625)"/>
     </defs>
     <use xlink:href="#STIXGeneral-Italic-52" transform="translate(0 0.409375)"/>
     <use xlink:href="#STIXGeneral-Regular-32" transform="translate(71.725772 35.684375) scale(0.7)"/>
     <use xlink:href="#MicrosoftYaHei-20" transform="translate(111.135136 0.409375)"/>
     <use xlink:href="#MicrosoftYaHei-3d" transform="translate(140.72498 0.409375)"/>
     <use xlink:href="#MicrosoftYaHei-20" transform="translate(214.894902 0.409375)"/>
     <use xlink:href="#MicrosoftYaHei-30" transform="translate(244.484746 0.409375)"/>
     <use xlink:href="#MicrosoftYaHei-2e" transform="translate(303.127324 0.409375)"/>
     <use xlink:href="#MicrosoftYaHei-39" transform="translate(327.19959 0.409375)"/>
     <use xlink:href="#MicrosoftYaHei-30" transform="translate(385.842168 0.409375)"/>
     <use xlink:href="#MicrosoftYaHei-34" transform="translate(444.484746 0.409375)"/>
    </g>
    <!-- MAE = 3.429 MPa -->
    <g style="fill: #222222" transform="translate(98.133166 148.942119) scale(0.105 -0.105)">
     <defs>
      <path id="MicrosoftYaHei-41" d="M 4428 0 
L 3738 0 
L 3244 1325 
L 1228 1325 
L 763 0 
L 72 0 
L 1916 4841 
L 2584 4841 
L 4428 0 
z
M 3050 1872 
L 2319 3884 
Q 2284 3981 2244 4222 
L 2228 4222 
Q 2194 4003 2150 3884 
L 1425 1872 
L 3050 1872 
z
" transform="scale(0.015625)"/>
      <path id="MicrosoftYaHei-45" d="M 3228 0 
L 625 0 
L 625 4841 
L 3119 4841 
L 3119 4284 
L 1250 4284 
L 1250 2734 
L 2981 2734 
L 2981 2181 
L 1250 2181 
L 1250 553 
L 3228 553 
L 3228 0 
z
" transform="scale(0.015625)"/>
      <path id="MicrosoftYaHei-33" d="M 447 809 
Q 944 425 1569 425 
Q 2069 425 2361 670 
Q 2653 916 2653 1328 
Q 2653 2247 1338 2247 
L 934 2247 
L 934 2753 
L 1319 2753 
Q 2484 2753 2484 3616 
Q 2484 4413 1594 4413 
Q 1084 4413 634 4069 
L 634 4647 
Q 1109 4922 1744 4922 
Q 2363 4922 2738 4598 
Q 3113 4275 3113 3759 
Q 3113 2809 2144 2538 
L 2144 2525 
Q 2669 2469 2973 2155 
Q 3278 1841 3278 1372 
Q 3278 719 2808 319 
Q 2338 -81 1556 -81 
Q 869 -81 447 175 
L 447 809 
z
" transform="scale(0.015625)"/>
     </defs>
     <use xlink:href="#MicrosoftYaHei-4d"/>
     <use xlink:href="#MicrosoftYaHei-41" transform="translate(97.705078 0)"/>
     <use xlink:href="#MicrosoftYaHei-45" transform="translate(168.066406 0)"/>
     <use xlink:href="#MicrosoftYaHei-20" transform="translate(223.046875 0)"/>
     <use xlink:href="#MicrosoftYaHei-3d" transform="translate(252.636719 0)"/>
     <use xlink:href="#MicrosoftYaHei-20" transform="translate(326.806641 0)"/>
     <use xlink:href="#MicrosoftYaHei-33" transform="translate(356.396484 0)"/>
     <use xlink:href="#MicrosoftYaHei-2e" transform="translate(415.039062 0)"/>
     <use xlink:href="#MicrosoftYaHei-34" transform="translate(439.111328 0)"/>
     <use xlink:href="#MicrosoftYaHei-32" transform="translate(497.753906 0)"/>
     <use xlink:href="#MicrosoftYaHei-39" transform="translate(556.396484 0)"/>
     <use xlink:href="#MicrosoftYaHei-20" transform="translate(615.039062 0)"/>
     <use xlink:href="#MicrosoftYaHei-4d" transform="translate(644.628906 0)"/>
     <use xlink:href="#MicrosoftYaHei-50" transform="translate(742.333984 0)"/>
     <use xlink:href="#MicrosoftYaHei-61" transform="translate(800.015625 0)"/>
    </g>
    <!-- RMSE = 4.769 MPa -->
    <g style="fill: #222222" transform="translate(92.6059 162.295953) scale(0.105 -0.105)">
     <defs>
      <path id="MicrosoftYaHei-52" d="M 4159 0 
L 3422 0 
L 2619 1344 
Q 2378 1747 2178 1892 
Q 1978 2038 1700 2038 
L 1250 2038 
L 1250 0 
L 625 0 
L 625 4841 
L 2100 4841 
Q 2806 4841 3206 4500 
Q 3606 4159 3606 3547 
Q 3606 2541 2531 2241 
L 2531 2225 
Q 2731 2141 2876 1984 
Q 3022 1828 3253 1450 
L 4159 0 
z
M 1250 4294 
L 1250 2584 
L 1988 2584 
Q 2416 2584 2683 2834 
Q 2950 3084 2950 3491 
Q 2950 3869 2706 4081 
Q 2463 4294 1997 4294 
L 1250 4294 
z
" transform="scale(0.015625)"/>
      <path id="MicrosoftYaHei-53" d="M 400 909 
Q 622 716 994 591 
Q 1366 466 1700 466 
Q 2719 466 2719 1191 
Q 2719 1394 2609 1556 
Q 2500 1719 2309 1844 
Q 2119 1969 1594 2228 
Q 866 2591 634 2902 
Q 403 3213 403 3613 
Q 403 4216 887 4569 
Q 1372 4922 2109 4922 
Q 2831 4922 3169 4747 
L 3169 4066 
Q 2731 4369 2063 4369 
Q 1619 4369 1339 4183 
Q 1059 3997 1059 3666 
Q 1059 3372 1253 3187 
Q 1447 3003 2094 2684 
Q 2806 2344 3090 2003 
Q 3375 1663 3375 1238 
Q 3375 600 2912 259 
Q 2450 -81 1628 -81 
Q 1341 -81 958 -1 
Q 575 78 400 197 
L 400 909 
z
" transform="scale(0.015625)"/>
      <path id="MicrosoftYaHei-37" d="M 3422 4463 
Q 2659 3131 2223 1998 
Q 1788 866 1684 0 
L 1047 0 
Q 1163 853 1594 1947 
Q 2025 3041 2747 4300 
L 347 4300 
L 347 4841 
L 3422 4841 
L 3422 4463 
z
" transform="scale(0.015625)"/>
     </defs>
     <use xlink:href="#MicrosoftYaHei-52"/>
     <use xlink:href="#MicrosoftYaHei-4d" transform="translate(65.283203 0)"/>
     <use xlink:href="#MicrosoftYaHei-53" transform="translate(162.988281 0)"/>
     <use xlink:href="#MicrosoftYaHei-45" transform="translate(220.703125 0)"/>
     <use xlink:href="#MicrosoftYaHei-20" transform="translate(275.683594 0)"/>
     <use xlink:href="#MicrosoftYaHei-3d" transform="translate(305.273438 0)"/>
     <use xlink:href="#MicrosoftYaHei-20" transform="translate(379.443359 0)"/>
     <use xlink:href="#MicrosoftYaHei-34" transform="translate(409.033203 0)"/>
     <use xlink:href="#MicrosoftYaHei-2e" transform="translate(467.675781 0)"/>
     <use xlink:href="#MicrosoftYaHei-37" transform="translate(491.748047 0)"/>
     <use xlink:href="#MicrosoftYaHei-36" transform="translate(550.390625 0)"/>
     <use xlink:href="#MicrosoftYaHei-39" transform="translate(609.033203 0)"/>
     <use xlink:href="#MicrosoftYaHei-20" transform="translate(667.675781 0)"/>
     <use xlink:href="#MicrosoftYaHei-4d" transform="translate(697.265625 0)"/>
     <use xlink:href="#MicrosoftYaHei-50" transform="translate(794.970703 0)"/>
     <use xlink:href="#MicrosoftYaHei-61" transform="translate(852.652344 0)"/>
    </g>
   </g>
   <g id="text_12">
    <!-- (a) 抗压强度预测值与实测值对比 -->
    <g style="fill: #222222" transform="translate(38.832578 12.872187) scale(0.125 -0.125)">
     <defs>
      <path id="MicrosoftYaHei-28" d="M 1531 -1100 
Q 478 100 478 1847 
Q 478 3594 1531 4841 
L 2072 4841 
Q 1016 3544 1016 1853 
Q 1016 166 2066 -1100 
L 1531 -1100 
z
" transform="scale(0.015625)"/>
      <path id="MicrosoftYaHei-29" d="M 78 -1100 
Q 1131 163 1131 1853 
Q 1131 3547 72 4841 
L 616 4841 
Q 1672 3603 1672 1847 
Q 1672 91 616 -1100 
L 78 -1100 
z
" transform="scale(0.015625)"/>
      <path id="MicrosoftYaHei-6297" d="M 3238 2634 
L 3238 1728 
Q 3238 28 2019 -866 
Q 1931 -747 1650 -497 
Q 2750 266 2750 1716 
L 2750 3084 
L 5106 3084 
L 5106 -53 
Q 5106 -266 5325 -266 
L 5538 -266 
Q 5788 -266 5825 128 
Q 5850 372 5881 922 
Q 6131 809 6350 728 
Q 6313 272 6269 -41 
Q 6188 -716 5594 -716 
L 5163 -716 
Q 4619 -716 4619 -141 
L 4619 2634 
L 3238 2634 
z
M 175 4041 
L 981 4041 
L 981 5266 
L 1463 5266 
L 1463 4041 
L 2150 4041 
L 2150 3609 
L 1463 3609 
L 1463 2403 
Q 1838 2519 2219 2641 
Q 2219 2347 2231 2153 
Q 1841 2031 1463 1909 
L 1463 -41 
Q 1463 -741 831 -747 
Q 619 -753 238 -747 
Q 200 -484 156 -216 
Q 506 -253 713 -253 
Q 981 -253 981 34 
L 981 1753 
Q 563 1616 156 1478 
L 94 1997 
Q 534 2122 981 2256 
L 981 3609 
L 175 3609 
L 175 4041 
z
M 2275 4359 
L 3925 4359 
Q 3694 4841 3513 5147 
L 3950 5359 
Q 4219 4909 4394 4553 
L 3988 4359 
L 6025 4359 
L 6025 3909 
L 2275 3909 
L 2275 4359 
z
" transform="scale(0.015625)"/>
      <path id="MicrosoftYaHei-538b" d="M 1363 3 
L 3538 3 
L 3538 2216 
L 1819 2216 
L 1819 2684 
L 3538 2684 
L 3538 4078 
L 4063 4078 
L 4063 2684 
L 5994 2684 
L 5994 2216 
L 4063 2216 
L 4063 3 
L 6250 3 
L 6250 -459 
L 1363 -459 
L 1363 3 
z
M 1363 2772 
Q 1363 1378 1188 672 
Q 1006 -59 488 -803 
Q 338 -622 100 -384 
Q 563 303 694 884 
Q 838 1459 838 2653 
L 838 4866 
L 6219 4866 
L 6219 4391 
L 1363 4391 
L 1363 2772 
z
M 4588 1516 
L 4938 1803 
Q 5413 1316 5881 791 
L 5469 459 
Q 4875 1191 4588 1516 
z
" transform="scale(0.015625)"/>
      <path id="MicrosoftYaHei-5f3a" d="M 5250 466 
L 5669 666 
Q 6031 28 6363 -641 
L 5894 -878 
Q 5794 -641 5688 -416 
Q 3750 -547 2219 -653 
L 2150 -134 
Q 3088 -97 3969 -59 
L 3969 866 
L 2894 866 
L 2894 622 
L 2431 622 
L 2431 2616 
L 3969 2616 
L 3969 3297 
L 3144 3297 
L 3144 3047 
L 2681 3047 
L 2681 4972 
L 5731 4972 
L 5731 3047 
L 5269 3047 
L 5269 3297 
L 4444 3297 
L 4444 2616 
L 5988 2616 
L 5988 866 
L 4444 866 
L 4444 -41 
Q 4975 -22 5488 3 
Q 5369 241 5250 466 
z
M 425 3466 
L 1650 3466 
L 1650 4516 
L 238 4516 
L 238 4941 
L 2113 4941 
L 2113 2772 
L 1650 2772 
L 1650 3041 
L 831 3041 
L 719 2072 
L 2056 2072 
Q 1994 741 1944 128 
Q 1888 -722 1100 -722 
Q 819 -722 425 -716 
Q 388 -484 325 -216 
Q 731 -247 1019 -247 
Q 1444 -247 1475 191 
Q 1525 828 1563 1647 
L 225 1647 
L 425 3466 
z
M 5269 4547 
L 3144 4547 
L 3144 3722 
L 5269 3722 
L 5269 4547 
z
M 5525 1291 
L 5525 2191 
L 4444 2191 
L 4444 1291 
L 5525 1291 
z
M 2894 1291 
L 3969 1291 
L 3969 2191 
L 2894 2191 
L 2894 1291 
z
" transform="scale(0.015625)"/>
      <path id="MicrosoftYaHei-5ea6" d="M 1550 1216 
L 1550 1628 
L 5469 1628 
L 5469 1222 
Q 4903 613 4147 163 
Q 5050 -200 6263 -309 
L 6019 -797 
Q 4625 -603 3644 -109 
Q 2600 -619 1250 -866 
Q 1150 -666 994 -416 
Q 2231 -222 3166 166 
Q 2497 600 2066 1216 
L 1550 1216 
z
M 1363 3541 
L 2294 3541 
L 2294 4066 
L 2769 4066 
L 2769 3541 
L 4538 3541 
L 4538 4072 
L 5013 4072 
L 5013 3541 
L 6150 3541 
L 6150 3128 
L 5013 3128 
L 5013 1928 
L 4538 1928 
L 4538 2147 
L 2769 2147 
L 2769 1922 
L 2294 1922 
L 2294 3128 
L 1363 3128 
L 1363 3541 
z
M 3025 5172 
L 3481 5391 
Q 3694 5056 3909 4634 
L 6213 4634 
L 6213 4197 
L 1225 4197 
L 1225 2316 
Q 1225 178 394 -872 
Q 238 -666 38 -447 
Q 725 397 738 2347 
L 738 4634 
L 3331 4634 
Q 3188 4909 3025 5172 
z
M 2769 2547 
L 4538 2547 
L 4538 3128 
L 2769 3128 
L 2769 2547 
z
M 4819 1216 
L 2588 1216 
Q 3031 728 3656 391 
Q 4334 741 4819 1216 
z
" transform="scale(0.015625)"/>
      <path id="MicrosoftYaHei-4e0e" d="M 1163 2384 
L 1163 2859 
L 1413 5328 
L 1931 5328 
L 1834 4334 
L 6269 4334 
L 6269 3859 
L 1791 3859 
L 1694 2859 
L 5813 2859 
Q 5738 1547 5644 416 
Q 5556 -247 5263 -478 
Q 4981 -703 4322 -703 
Q 3706 -697 2900 -678 
Q 2863 -466 2794 -134 
Q 3744 -203 4213 -209 
Q 5050 -266 5125 447 
Q 5206 1278 5263 2384 
L 1163 2384 
z
M 106 1409 
L 4738 1409 
L 4738 934 
L 106 934 
L 106 1409 
z
" transform="scale(0.015625)"/>
      <path id="MicrosoftYaHei-5bf9" d="M 694 3691 
Q 1234 2909 1741 2166 
Q 2113 3081 2213 4147 
L 250 4147 
L 250 4622 
L 2725 4622 
L 2725 4166 
Q 2553 2809 2059 1700 
Q 2569 953 3044 247 
L 2594 -53 
Q 2203 563 1803 1181 
Q 1247 163 388 -622 
Q 263 -428 81 -166 
Q 975 638 1500 1647 
Q 919 2538 319 3434 
L 694 3691 
z
M 2975 3941 
L 5056 3941 
L 5056 5278 
L 5563 5278 
L 5563 3941 
L 6325 3941 
L 6325 3466 
L 5563 3466 
L 5563 191 
Q 5563 -716 4669 -716 
Q 4388 -716 3744 -709 
Q 3713 -478 3644 -147 
Q 4263 -197 4588 -197 
Q 5056 -197 5056 278 
L 5056 3466 
L 2975 3466 
L 2975 3941 
z
M 3088 2684 
L 3494 2928 
Q 4000 2184 4388 1484 
L 3919 1216 
Q 3550 1922 3088 2684 
z
" transform="scale(0.015625)"/>
      <path id="MicrosoftYaHei-6bd4" d="M 3225 5316 
L 3744 5316 
L 3744 2672 
Q 4959 3550 5744 4509 
L 6188 4178 
Q 5175 3063 3744 2056 
L 3744 247 
Q 3744 -166 4106 -166 
L 5175 -166 
Q 5588 -166 5650 203 
Q 5725 678 5763 1247 
Q 6025 1147 6300 1066 
Q 6244 484 6150 22 
Q 6019 -622 5319 -622 
L 3944 -622 
Q 3225 -622 3225 159 
L 3225 5316 
z
M 1063 5153 
L 1063 3278 
L 2825 3278 
L 2825 2809 
L 1063 2809 
L 1063 153 
Q 1713 428 2763 928 
Q 2763 634 2788 366 
Q 1869 -3 1231 -328 
Q 956 -472 725 -672 
L 344 -184 
Q 544 -34 544 272 
L 544 5153 
L 1063 5153 
z
" transform="scale(0.015625)"/>
     </defs>
     <use xlink:href="#MicrosoftYaHei-28"/>
     <use xlink:href="#MicrosoftYaHei-61" transform="translate(33.398438 0)"/>
     <use xlink:href="#MicrosoftYaHei-29" transform="translate(88.671875 0)"/>
     <use xlink:href="#MicrosoftYaHei-20" transform="translate(122.070312 0)"/>
     <use xlink:href="#MicrosoftYaHei-6297" transform="translate(151.660156 0)"/>
     <use xlink:href="#MicrosoftYaHei-538b" transform="translate(251.660156 0)"/>
     <use xlink:href="#MicrosoftYaHei-5f3a" transform="translate(351.660156 0)"/>
     <use xlink:href="#MicrosoftYaHei-5ea6" transform="translate(451.660156 0)"/>
     <use xlink:href="#MicrosoftYaHei-9884" transform="translate(551.660156 0)"/>
     <use xlink:href="#MicrosoftYaHei-6d4b" transform="translate(651.660156 0)"/>
     <use xlink:href="#MicrosoftYaHei-503c" transform="translate(751.660156 0)"/>
     <use xlink:href="#MicrosoftYaHei-4e0e" transform="translate(851.660156 0)"/>
     <use xlink:href="#MicrosoftYaHei-5b9e" transform="translate(951.660156 0)"/>
     <use xlink:href="#MicrosoftYaHei-6d4b" transform="translate(1051.660156 0)"/>
     <use xlink:href="#MicrosoftYaHei-503c" transform="translate(1151.660156 0)"/>
     <use xlink:href="#MicrosoftYaHei-5bf9" transform="translate(1251.660156 0)"/>
     <use xlink:href="#MicrosoftYaHei-6bd4" transform="translate(1351.660156 0)"/>
    </g>
   </g>
  </g>
  <g id="axes_2">
   <g id="patch_8">
    <path d="M 280.712157 172.592187 
L 434.432157 172.592187 
L 434.432157 18.872187 
L 280.712157 18.872187 
z
" style="fill: #ffffff"/>
   </g>
   <g id="matplotlib.axis_3">
    <g id="xtick_5">
     <g id="line2d_18">
      <path d="M 301.48513 172.592187 
L 301.48513 18.872187 
" clip-path="url(#pdee3dda4f0)" style="fill: none; stroke: #cccccc; stroke-opacity: 0.2; stroke-width: 0.6; stroke-linecap: square"/>
     </g>
     <g id="line2d_19">
      <g>
       <use xlink:href="#m88b329b6ff" x="301.48513" y="172.592187" style="fill: #222222; stroke: #222222; stroke-width: 0.8"/>
      </g>
     </g>
     <g id="text_13">
      <!-- 4 -->
      <g style="fill: #222222" transform="translate(298.259896 188.385312) scale(0.11 -0.11)">
       <use xlink:href="#MicrosoftYaHei-34"/>
      </g>
     </g>
    </g>
    <g id="xtick_6">
     <g id="line2d_20">
      <path d="M 343.031076 172.592187 
L 343.031076 18.872187 
" clip-path="url(#pdee3dda4f0)" style="fill: none; stroke: #cccccc; stroke-opacity: 0.2; stroke-width: 0.6; stroke-linecap: square"/>
     </g>
     <g id="line2d_21">
      <g>
       <use xlink:href="#m88b329b6ff" x="343.031076" y="172.592187" style="fill: #222222; stroke: #222222; stroke-width: 0.8"/>
      </g>
     </g>
     <g id="text_14">
      <!-- 5 -->
      <g style="fill: #222222" transform="translate(339.805842 188.385312) scale(0.11 -0.11)">
       <defs>
        <path id="MicrosoftYaHei-35" d="M 3294 1494 
Q 3294 784 2823 350 
Q 2353 -84 1559 -84 
Q 878 -84 544 119 
L 544 744 
Q 1034 425 1544 425 
Q 2050 425 2361 704 
Q 2672 984 2672 1447 
Q 2672 1909 2348 2167 
Q 2025 2425 1434 2425 
Q 978 2425 613 2384 
L 791 4841 
L 3053 4841 
L 3053 4303 
L 1306 4303 
L 1206 2931 
L 1647 2950 
Q 2416 2950 2855 2567 
Q 3294 2184 3294 1494 
z
" transform="scale(0.015625)"/>
       </defs>
       <use xlink:href="#MicrosoftYaHei-35"/>
      </g>
     </g>
    </g>
    <g id="xtick_7">
     <g id="line2d_22">
      <path d="M 384.577022 172.592187 
L 384.577022 18.872187 
" clip-path="url(#pdee3dda4f0)" style="fill: none; stroke: #cccccc; stroke-opacity: 0.2; stroke-width: 0.6; stroke-linecap: square"/>
     </g>
     <g id="line2d_23">
      <g>
       <use xlink:href="#m88b329b6ff" x="384.577022" y="172.592187" style="fill: #222222; stroke: #222222; stroke-width: 0.8"/>
      </g>
     </g>
     <g id="text_15">
      <!-- 6 -->
      <g style="fill: #222222" transform="translate(381.351788 188.385312) scale(0.11 -0.11)">
       <use xlink:href="#MicrosoftYaHei-36"/>
      </g>
     </g>
    </g>
    <g id="xtick_8">
     <g id="line2d_24">
      <path d="M 426.122968 172.592187 
L 426.122968 18.872187 
" clip-path="url(#pdee3dda4f0)" style="fill: none; stroke: #cccccc; stroke-opacity: 0.2; stroke-width: 0.6; stroke-linecap: square"/>
     </g>
     <g id="line2d_25">
      <g>
       <use xlink:href="#m88b329b6ff" x="426.122968" y="172.592187" style="fill: #222222; stroke: #222222; stroke-width: 0.8"/>
      </g>
     </g>
     <g id="text_16">
      <!-- 7 -->
      <g style="fill: #222222" transform="translate(422.897734 188.385312) scale(0.11 -0.11)">
       <use xlink:href="#MicrosoftYaHei-37"/>
      </g>
     </g>
    </g>
    <g id="text_17">
     <!-- 实测值 / MPa -->
     <g style="fill: #222222" transform="translate(322.348915 204.312656) scale(0.115 -0.115)">
      <use xlink:href="#MicrosoftYaHei-5b9e"/>
      <use xlink:href="#MicrosoftYaHei-6d4b" transform="translate(100 0)"/>
      <use xlink:href="#MicrosoftYaHei-503c" transform="translate(200 0)"/>
      <use xlink:href="#MicrosoftYaHei-20" transform="translate(300 0)"/>
      <use xlink:href="#MicrosoftYaHei-2f" transform="translate(329.589844 0)"/>
      <use xlink:href="#MicrosoftYaHei-20" transform="translate(372.314453 0)"/>
      <use xlink:href="#MicrosoftYaHei-4d" transform="translate(401.904297 0)"/>
      <use xlink:href="#MicrosoftYaHei-50" transform="translate(499.609375 0)"/>
      <use xlink:href="#MicrosoftYaHei-61" transform="translate(557.291016 0)"/>
     </g>
    </g>
   </g>
   <g id="matplotlib.axis_4">
    <g id="ytick_5">
     <g id="line2d_26">
      <path d="M 280.712157 151.819215 
L 434.432157 151.819215 
" clip-path="url(#pdee3dda4f0)" style="fill: none; stroke: #cccccc; stroke-opacity: 0.2; stroke-width: 0.6; stroke-linecap: square"/>
     </g>
     <g id="line2d_27">
      <g>
       <use xlink:href="#m75f6db8dde" x="280.712157" y="151.819215" style="fill: #222222; stroke: #222222; stroke-width: 0.8"/>
      </g>
     </g>
     <g id="text_18">
      <!-- 4 -->
      <g style="fill: #222222" transform="translate(267.261688 156.215777) scale(0.11 -0.11)">
       <use xlink:href="#MicrosoftYaHei-34"/>
      </g>
     </g>
    </g>
    <g id="ytick_6">
     <g id="line2d_28">
      <path d="M 280.712157 110.273269 
L 434.432157 110.273269 
" clip-path="url(#pdee3dda4f0)" style="fill: none; stroke: #cccccc; stroke-opacity: 0.2; stroke-width: 0.6; stroke-linecap: square"/>
     </g>
     <g id="line2d_29">
      <g>
       <use xlink:href="#m75f6db8dde" x="280.712157" y="110.273269" style="fill: #222222; stroke: #222222; stroke-width: 0.8"/>
      </g>
     </g>
     <g id="text_19">
      <!-- 5 -->
      <g style="fill: #222222" transform="translate(267.261688 114.669831) scale(0.11 -0.11)">
       <use xlink:href="#MicrosoftYaHei-35"/>
      </g>
     </g>
    </g>
    <g id="ytick_7">
     <g id="line2d_30">
      <path d="M 280.712157 68.727323 
L 434.432157 68.727323 
" clip-path="url(#pdee3dda4f0)" style="fill: none; stroke: #cccccc; stroke-opacity: 0.2; stroke-width: 0.6; stroke-linecap: square"/>
     </g>
     <g id="line2d_31">
      <g>
       <use xlink:href="#m75f6db8dde" x="280.712157" y="68.727323" style="fill: #222222; stroke: #222222; stroke-width: 0.8"/>
      </g>
     </g>
     <g id="text_20">
      <!-- 6 -->
      <g style="fill: #222222" transform="translate(267.261688 73.123885) scale(0.11 -0.11)">
       <use xlink:href="#MicrosoftYaHei-36"/>
      </g>
     </g>
    </g>
    <g id="ytick_8">
     <g id="line2d_32">
      <path d="M 280.712157 27.181377 
L 434.432157 27.181377 
" clip-path="url(#pdee3dda4f0)" style="fill: none; stroke: #cccccc; stroke-opacity: 0.2; stroke-width: 0.6; stroke-linecap: square"/>
     </g>
     <g id="line2d_33">
      <g>
       <use xlink:href="#m75f6db8dde" x="280.712157" y="27.181377" style="fill: #222222; stroke: #222222; stroke-width: 0.8"/>
      </g>
     </g>
     <g id="text_21">
      <!-- 7 -->
      <g style="fill: #222222" transform="translate(267.261688 31.577939) scale(0.11 -0.11)">
       <use xlink:href="#MicrosoftYaHei-37"/>
      </g>
     </g>
    </g>
    <g id="text_22">
     <!-- 预测值 / MPa -->
     <g style="fill: #222222" transform="translate(260.40286 130.95543) rotate(-90) scale(0.115 -0.115)">
      <use xlink:href="#MicrosoftYaHei-9884"/>
      <use xlink:href="#MicrosoftYaHei-6d4b" transform="translate(100 0)"/>
      <use xlink:href="#MicrosoftYaHei-503c" transform="translate(200 0)"/>
      <use xlink:href="#MicrosoftYaHei-20" transform="translate(300 0)"/>
      <use xlink:href="#MicrosoftYaHei-2f" transform="translate(329.589844 0)"/>
      <use xlink:href="#MicrosoftYaHei-20" transform="translate(372.314453 0)"/>
      <use xlink:href="#MicrosoftYaHei-4d" transform="translate(401.904297 0)"/>
      <use xlink:href="#MicrosoftYaHei-50" transform="translate(499.609375 0)"/>
      <use xlink:href="#MicrosoftYaHei-61" transform="translate(557.291016 0)"/>
     </g>
    </g>
   </g>
   <g id="line2d_34">
    <path d="M 280.712157 172.592188 
L 434.432157 18.872188 
" clip-path="url(#pdee3dda4f0)" style="fill: none; stroke-dasharray: 3.7,1.6; stroke-dashoffset: 0; stroke: #555555"/>
   </g>
   <g id="patch_9">
    <path d="M 280.712157 172.592188 
L 280.712157 18.872188 
" style="fill: none; stroke: #333333; stroke-width: 0.8; stroke-linejoin: miter; stroke-linecap: square"/>
   </g>
   <g id="patch_10">
    <path d="M 434.432157 172.592188 
L 434.432157 18.872188 
" style="fill: none; stroke: #333333; stroke-width: 0.8; stroke-linejoin: miter; stroke-linecap: square"/>
   </g>
   <g id="patch_11">
    <path d="M 280.712157 172.592187 
L 434.432157 172.592187 
" style="fill: none; stroke: #333333; stroke-width: 0.8; stroke-linejoin: miter; stroke-linecap: square"/>
   </g>
   <g id="patch_12">
    <path d="M 280.712157 18.872187 
L 434.432157 18.872187 
" style="fill: none; stroke: #333333; stroke-width: 0.8; stroke-linejoin: miter; stroke-linecap: square"/>
   </g>
   <g id="PathCollection_2">
    <defs>
     <path id="m6d095b328b" d="M 0 2.54951 
C 0.676138 2.54951 1.324674 2.280877 1.802776 1.802776 
C 2.280877 1.324674 2.54951 0.676138 2.54951 0 
C 2.54951 -0.676138 2.280877 -1.324674 1.802776 -1.802776 
C 1.324674 -2.280877 0.676138 -2.54951 0 -2.54951 
C -0.676138 -2.54951 -1.324674 -2.280877 -1.802776 -1.802776 
C -2.280877 -1.324674 -2.54951 -0.676138 -2.54951 0 
C -2.54951 0.676138 -2.280877 1.324674 -1.802776 1.802776 
C -1.324674 2.280877 -0.676138 2.54951 0 2.54951 
z
" style="stroke: #b86a42; stroke-opacity: 0.75; stroke-width: 0.4"/>
    </defs>
    <g clip-path="url(#pdee3dda4f0)">
     <use xlink:href="#m6d095b328b" x="330.627962" y="123.421082" style="fill: #dd8452; fill-opacity: 0.75; stroke: #b86a42; stroke-opacity: 0.75; stroke-width: 0.4"/>
     <use xlink:href="#m6d095b328b" x="337.712523" y="113.371793" style="fill: #dd8452; fill-opacity: 0.75; stroke: #b86a42; stroke-opacity: 0.75; stroke-width: 0.4"/>
     <use xlink:href="#m6d095b328b" x="328.040412" y="122.791999" style="fill: #dd8452; fill-opacity: 0.75; stroke: #b86a42; stroke-opacity: 0.75; stroke-width: 0.4"/>
     <use xlink:href="#m6d095b328b" x="320.915679" y="135.729496" style="fill: #dd8452; fill-opacity: 0.75; stroke: #b86a42; stroke-opacity: 0.75; stroke-width: 0.4"/>
     <use xlink:href="#m6d095b328b" x="385.5213" y="66.236352" style="fill: #dd8452; fill-opacity: 0.75; stroke: #b86a42; stroke-opacity: 0.75; stroke-width: 0.4"/>
     <use xlink:href="#m6d095b328b" x="328.678618" y="125.515359" style="fill: #dd8452; fill-opacity: 0.75; stroke: #b86a42; stroke-opacity: 0.75; stroke-width: 0.4"/>
     <use xlink:href="#m6d095b328b" x="354.350515" y="96.634399" style="fill: #dd8452; fill-opacity: 0.75; stroke: #b86a42; stroke-opacity: 0.75; stroke-width: 0.4"/>
     <use xlink:href="#m6d095b328b" x="311.501569" y="143.535997" style="fill: #dd8452; fill-opacity: 0.75; stroke: #b86a42; stroke-opacity: 0.75; stroke-width: 0.4"/>
     <use xlink:href="#m6d095b328b" x="283.757277" y="168.406343" style="fill: #dd8452; fill-opacity: 0.75; stroke: #b86a42; stroke-opacity: 0.75; stroke-width: 0.4"/>
     <use xlink:href="#m6d095b328b" x="324.923236" y="125.166604" style="fill: #dd8452; fill-opacity: 0.75; stroke: #b86a42; stroke-opacity: 0.75; stroke-width: 0.4"/>
     <use xlink:href="#m6d095b328b" x="362.907389" y="89.810931" style="fill: #dd8452; fill-opacity: 0.75; stroke: #b86a42; stroke-opacity: 0.75; stroke-width: 0.4"/>
     <use xlink:href="#m6d095b328b" x="312.215273" y="141.765268" style="fill: #dd8452; fill-opacity: 0.75; stroke: #b86a42; stroke-opacity: 0.75; stroke-width: 0.4"/>
     <use xlink:href="#m6d095b328b" x="346.937803" y="105.900568" style="fill: #dd8452; fill-opacity: 0.75; stroke: #b86a42; stroke-opacity: 0.75; stroke-width: 0.4"/>
     <use xlink:href="#m6d095b328b" x="320.616216" y="131.345299" style="fill: #dd8452; fill-opacity: 0.75; stroke: #b86a42; stroke-opacity: 0.75; stroke-width: 0.4"/>
     <use xlink:href="#m6d095b328b" x="250.060226" y="203.52657" style="fill: #dd8452; fill-opacity: 0.75; stroke: #b86a42; stroke-opacity: 0.75; stroke-width: 0.4"/>
     <use xlink:href="#m6d095b328b" x="251.125802" y="200.987619" style="fill: #dd8452; fill-opacity: 0.75; stroke: #b86a42; stroke-opacity: 0.75; stroke-width: 0.4"/>
     <use xlink:href="#m6d095b328b" x="349.085256" y="102.202854" style="fill: #dd8452; fill-opacity: 0.75; stroke: #b86a42; stroke-opacity: 0.75; stroke-width: 0.4"/>
     <use xlink:href="#m6d095b328b" x="313.816465" y="137.474892" style="fill: #dd8452; fill-opacity: 0.75; stroke: #b86a42; stroke-opacity: 0.75; stroke-width: 0.4"/>
     <use xlink:href="#m6d095b328b" x="323.157322" y="132.351592" style="fill: #dd8452; fill-opacity: 0.75; stroke: #b86a42; stroke-opacity: 0.75; stroke-width: 0.4"/>
     <use xlink:href="#m6d095b328b" x="345.767033" y="107.258865" style="fill: #dd8452; fill-opacity: 0.75; stroke: #b86a42; stroke-opacity: 0.75; stroke-width: 0.4"/>
     <use xlink:href="#m6d095b328b" x="387.927623" y="65.535714" style="fill: #dd8452; fill-opacity: 0.75; stroke: #b86a42; stroke-opacity: 0.75; stroke-width: 0.4"/>
     <use xlink:href="#m6d095b328b" x="353.655942" y="99.838202" style="fill: #dd8452; fill-opacity: 0.75; stroke: #b86a42; stroke-opacity: 0.75; stroke-width: 0.4"/>
     <use xlink:href="#m6d095b328b" x="331.25241" y="118.195279" style="fill: #dd8452; fill-opacity: 0.75; stroke: #b86a42; stroke-opacity: 0.75; stroke-width: 0.4"/>
     <use xlink:href="#m6d095b328b" x="376.292095" y="77.309771" style="fill: #dd8452; fill-opacity: 0.75; stroke: #b86a42; stroke-opacity: 0.75; stroke-width: 0.4"/>
     <use xlink:href="#m6d095b328b" x="354.248481" y="168.865951" style="fill: #dd8452; fill-opacity: 0.75; stroke: #b86a42; stroke-opacity: 0.75; stroke-width: 0.4"/>
     <use xlink:href="#m6d095b328b" x="365.050427" y="137.336332" style="fill: #dd8452; fill-opacity: 0.75; stroke: #b86a42; stroke-opacity: 0.75; stroke-width: 0.4"/>
     <use xlink:href="#m6d095b328b" x="392.055292" y="137.336332" style="fill: #dd8452; fill-opacity: 0.75; stroke: #b86a42; stroke-opacity: 0.75; stroke-width: 0.4"/>
     <use xlink:href="#m6d095b328b" x="329.320914" y="137.336332" style="fill: #dd8452; fill-opacity: 0.75; stroke: #b86a42; stroke-opacity: 0.75; stroke-width: 0.4"/>
     <use xlink:href="#m6d095b328b" x="387.900698" y="137.336332" style="fill: #dd8452; fill-opacity: 0.75; stroke: #b86a42; stroke-opacity: 0.75; stroke-width: 0.4"/>
     <use xlink:href="#m6d095b328b" x="418.229238" y="108.357903" style="fill: #dd8452; fill-opacity: 0.75; stroke: #b86a42; stroke-opacity: 0.75; stroke-width: 0.4"/>
     <use xlink:href="#m6d095b328b" x="424.46113" y="108.357903" style="fill: #dd8452; fill-opacity: 0.75; stroke: #b86a42; stroke-opacity: 0.75; stroke-width: 0.4"/>
     <use xlink:href="#m6d095b328b" x="411.997346" y="108.357903" style="fill: #dd8452; fill-opacity: 0.75; stroke: #b86a42; stroke-opacity: 0.75; stroke-width: 0.4"/>
     <use xlink:href="#m6d095b328b" x="436.093995" y="108.357903" style="fill: #dd8452; fill-opacity: 0.75; stroke: #b86a42; stroke-opacity: 0.75; stroke-width: 0.4"/>
    </g>
   </g>
   <g id="text_23">
    <g id="patch_13">
     <path d="M 334.485479 167.846187 
L 429.820557 167.846187 
Q 432.760557 167.846187 432.760557 164.906187 
L 432.760557 127.194847 
Q 432.760557 124.254847 429.820557 124.254847 
L 334.485479 124.254847 
Q 331.545479 124.254847 331.545479 127.194847 
L 331.545479 164.906187 
Q 331.545479 167.846187 334.485479 167.846187 
z
" style="fill: #ffffff; opacity: 0.72; stroke: #cccccc; stroke-width: 0.5; stroke-linejoin: miter"/>
    </g>
    <!-- $R^2$ = 0.305 -->
    <g style="fill: #222222" transform="translate(376.900557 135.588284) scale(0.105 -0.105)">
     <use xlink:href="#STIXGeneral-Italic-52" transform="translate(0 0.409375)"/>
     <use xlink:href="#STIXGeneral-Regular-32" transform="translate(71.725772 35.684375) scale(0.7)"/>
     <use xlink:href="#MicrosoftYaHei-20" transform="translate(111.135136 0.409375)"/>
     <use xlink:href="#MicrosoftYaHei-3d" transform="translate(140.72498 0.409375)"/>
     <use xlink:href="#MicrosoftYaHei-20" transform="translate(214.894902 0.409375)"/>
     <use xlink:href="#MicrosoftYaHei-30" transform="translate(244.484746 0.409375)"/>
     <use xlink:href="#MicrosoftYaHei-2e" transform="translate(303.127324 0.409375)"/>
     <use xlink:href="#MicrosoftYaHei-33" transform="translate(327.19959 0.409375)"/>
     <use xlink:href="#MicrosoftYaHei-30" transform="translate(385.842168 0.409375)"/>
     <use xlink:href="#MicrosoftYaHei-35" transform="translate(444.484746 0.409375)"/>
    </g>
    <!-- MAE = 0.457 MPa -->
    <g style="fill: #222222" transform="translate(340.012745 148.942119) scale(0.105 -0.105)">
     <use xlink:href="#MicrosoftYaHei-4d"/>
     <use xlink:href="#MicrosoftYaHei-41" transform="translate(97.705078 0)"/>
     <use xlink:href="#MicrosoftYaHei-45" transform="translate(168.066406 0)"/>
     <use xlink:href="#MicrosoftYaHei-20" transform="translate(223.046875 0)"/>
     <use xlink:href="#MicrosoftYaHei-3d" transform="translate(252.636719 0)"/>
     <use xlink:href="#MicrosoftYaHei-20" transform="translate(326.806641 0)"/>
     <use xlink:href="#MicrosoftYaHei-30" transform="translate(356.396484 0)"/>
     <use xlink:href="#MicrosoftYaHei-2e" transform="translate(415.039062 0)"/>
     <use xlink:href="#MicrosoftYaHei-34" transform="translate(439.111328 0)"/>
     <use xlink:href="#MicrosoftYaHei-35" transform="translate(497.753906 0)"/>
     <use xlink:href="#MicrosoftYaHei-37" transform="translate(556.396484 0)"/>
     <use xlink:href="#MicrosoftYaHei-20" transform="translate(615.039062 0)"/>
     <use xlink:href="#MicrosoftYaHei-4d" transform="translate(644.628906 0)"/>
     <use xlink:href="#MicrosoftYaHei-50" transform="translate(742.333984 0)"/>
     <use xlink:href="#MicrosoftYaHei-61" transform="translate(800.015625 0)"/>
    </g>
    <!-- RMSE = 0.869 MPa -->
    <g style="fill: #222222" transform="translate(334.485479 162.295953) scale(0.105 -0.105)">
     <use xlink:href="#MicrosoftYaHei-52"/>
     <use xlink:href="#MicrosoftYaHei-4d" transform="translate(65.283203 0)"/>
     <use xlink:href="#MicrosoftYaHei-53" transform="translate(162.988281 0)"/>
     <use xlink:href="#MicrosoftYaHei-45" transform="translate(220.703125 0)"/>
     <use xlink:href="#MicrosoftYaHei-20" transform="translate(275.683594 0)"/>
     <use xlink:href="#MicrosoftYaHei-3d" transform="translate(305.273438 0)"/>
     <use xlink:href="#MicrosoftYaHei-20" transform="translate(379.443359 0)"/>
     <use xlink:href="#MicrosoftYaHei-30" transform="translate(409.033203 0)"/>
     <use xlink:href="#MicrosoftYaHei-2e" transform="translate(467.675781 0)"/>
     <use xlink:href="#MicrosoftYaHei-38" transform="translate(491.748047 0)"/>
     <use xlink:href="#MicrosoftYaHei-36" transform="translate(550.390625 0)"/>
     <use xlink:href="#MicrosoftYaHei-39" transform="translate(609.033203 0)"/>
     <use xlink:href="#MicrosoftYaHei-20" transform="translate(667.675781 0)"/>
     <use xlink:href="#MicrosoftYaHei-4d" transform="translate(697.265625 0)"/>
     <use xlink:href="#MicrosoftYaHei-50" transform="translate(794.970703 0)"/>
     <use xlink:href="#MicrosoftYaHei-61" transform="translate(852.652344 0)"/>
    </g>
   </g>
   <g id="text_24">
    <!-- (b) 抗折强度预测值与实测值对比 -->
    <g style="fill: #222222" transform="translate(280.712157 12.872187) scale(0.125 -0.125)">
     <defs>
      <path id="MicrosoftYaHei-62" d="M 1159 488 
L 1159 0 
L 547 0 
L 547 5116 
L 1159 5116 
L 1159 2859 
L 1172 2859 
Q 1578 3538 2359 3538 
Q 3009 3538 3392 3080 
Q 3775 2622 3775 1828 
Q 3775 953 3345 436 
Q 2916 -81 2200 -81 
Q 1525 -81 1172 488 
L 1159 488 
z
M 1156 1422 
Q 1156 1003 1428 714 
Q 1700 425 2109 425 
Q 2597 425 2872 800 
Q 3147 1175 3147 1838 
Q 3147 2384 2890 2707 
Q 2634 3031 2191 3031 
Q 1741 3031 1448 2709 
Q 1156 2388 1156 1891 
L 1156 1422 
z
" transform="scale(0.015625)"/>
      <path id="MicrosoftYaHei-6298" d="M 2631 4816 
Q 4256 4822 5975 5078 
L 6144 4591 
Q 4281 4397 3119 4372 
L 3119 2916 
L 6300 2916 
L 6300 2453 
L 5163 2453 
L 5163 -822 
L 4663 -822 
L 4663 2453 
L 3119 2453 
Q 3103 203 2250 -859 
Q 2081 -672 1856 -472 
Q 2631 441 2631 2447 
L 2631 4816 
z
M 75 1953 
Q 513 2072 1013 2216 
L 1013 3591 
L 181 3591 
L 181 4022 
L 1013 4022 
L 1013 5259 
L 1500 5259 
L 1500 4022 
L 2275 4022 
L 2275 3591 
L 1500 3591 
L 1500 2363 
Q 1834 2463 2194 2578 
Q 2200 2259 2206 2078 
Q 1922 1997 1500 1866 
L 1500 -22 
Q 1500 -703 938 -722 
Q 650 -734 263 -728 
Q 225 -466 181 -203 
Q 556 -241 756 -241 
Q 1013 -241 1013 66 
L 1013 1709 
Q 622 1584 144 1428 
L 75 1953 
z
" transform="scale(0.015625)"/>
     </defs>
     <use xlink:href="#MicrosoftYaHei-28"/>
     <use xlink:href="#MicrosoftYaHei-62" transform="translate(33.398438 0)"/>
     <use xlink:href="#MicrosoftYaHei-29" transform="translate(97.265625 0)"/>
     <use xlink:href="#MicrosoftYaHei-20" transform="translate(130.664062 0)"/>
     <use xlink:href="#MicrosoftYaHei-6297" transform="translate(160.253906 0)"/>
     <use xlink:href="#MicrosoftYaHei-6298" transform="translate(260.253906 0)"/>
     <use xlink:href="#MicrosoftYaHei-5f3a" transform="translate(360.253906 0)"/>
     <use xlink:href="#MicrosoftYaHei-5ea6" transform="translate(460.253906 0)"/>
     <use xlink:href="#MicrosoftYaHei-9884" transform="translate(560.253906 0)"/>
     <use xlink:href="#MicrosoftYaHei-6d4b" transform="translate(660.253906 0)"/>
     <use xlink:href="#MicrosoftYaHei-503c" transform="translate(760.253906 0)"/>
     <use xlink:href="#MicrosoftYaHei-4e0e" transform="translate(860.253906 0)"/>
     <use xlink:href="#MicrosoftYaHei-5b9e" transform="translate(960.253906 0)"/>
     <use xlink:href="#MicrosoftYaHei-6d4b" transform="translate(1060.253906 0)"/>
     <use xlink:href="#MicrosoftYaHei-503c" transform="translate(1160.253906 0)"/>
     <use xlink:href="#MicrosoftYaHei-5bf9" transform="translate(1260.253906 0)"/>
     <use xlink:href="#MicrosoftYaHei-6bd4" transform="translate(1360.253906 0)"/>
    </g>
   </g>
  </g>
 </g>
 <defs>
  <clipPath id="pf8677cbd63">
   <rect x="38.832578" y="18.872187" width="153.72" height="153.72"/>
  </clipPath>
  <clipPath id="pdee3dda4f0">
   <rect x="280.712157" y="18.872187" width="153.72" height="153.72"/>
  </clipPath>
 </defs>
</svg>
